<svg xmlns="http://www.w3.org/2000/svg" viewBox="0 0 342.71 71.27">
  <defs>
    <style>
      .cls-1 {
        fill: #a5cae4;
      }

      .cls-2 {
        fill: #fff;
      }

      .cls-3 {
        fill: #d7edfc;
      }
    </style>
  </defs>
  <title>XenForo® Logo</title>
  <g id="xenForo">
    <path class="cls-1" d="M61.69,209.12l17.94,26.15H71l-13.08-20-13.13,20H36.16L54.1,209.43,38,185.86h8.69l11.21,18m3.77,5.22,2.14-3.1M60,200.6l9.13-14.74h8.63L63.83,206M60,200.6m-2,3.3" transform="translate(-36.16 -164.73)"/>
    <path class="cls-1" d="M88.75,206.28c0-1.11,0-2.13.09-3.11v-.36h0c.28-4.38,1.11-7.35,2.5-8.86q2.61-2.82,11.4-2.82t11.37,2.41c1.63,1.48,2.49,4.59,2.61,9.27H124q-.67-9.75-4.07-13.28-4.25-4.4-17.88-4.39-12.51,0-16.8,5.06T81,210.05q0,16,4.27,21t17.9,5q11.73,0,16.41-3.08t4.68-10.78l-.05-1.8h-7.39v1.55q0,5.06-2.61,6.59T102.86,230q-9.19,0-11.7-3.2t-2.51-14.89h35.56V208c0-.59,0-1.18,0-1.75H88.75Z" transform="translate(-36.16 -164.73)"/>
    <path class="cls-1" d="M88.85,202.81v.36c0-.12,0-.24,0-.36Z" transform="translate(-36.16 -164.73)"/>
    <path class="cls-1" d="M154.94,191.13c4.61,0,7.73.74,9.35,2.2s2.43,4.32,2.43,8.56v.92H174c0-6.85-1.28-11.51-3.74-13.95s-7.28-3.72-14.34-3.72q-13.14,0-16.44,7.6l-.21-.16.21-6.72h-7v16.95h7.41C140.78,195,145.79,191.13,154.94,191.13Z" transform="translate(-36.16 -164.73)"/>
    <rect class="cls-1" x="96.29" y="41.55" width="7.24" height="28.99"/>
    <rect class="cls-1" x="130.56" y="41.55" width="7.24" height="28.99"/>
    <path class="cls-2" d="M192.18,196.1V171.44h35.3v-6.71H184.22v38.08h41.22a43.43,43.43,0,0,1,1.06-6.71Z" transform="translate(-36.16 -164.73)"/>
    <rect class="cls-2" x="148.05" y="41.55" width="7.96" height="28.99"/>
    <path class="cls-2" d="M267.09,210.57q0,13.17-2.3,16.3t-12,3.13q-9.62,0-11.91-3.13t-2.3-16.3c0-1.54,0-3,.07-4.29h-7.58c-.06,1.36-.09,2.78-.09,4.29q0,15.92,4.08,20.67T252.83,236q13.69,0,17.78-4.76t4.08-20.67c0-1.51,0-2.93-.08-4.29H267C267.07,207.61,267.09,209,267.09,210.57Z" transform="translate(-36.16 -164.73)"/>
    <path class="cls-2" d="M240.92,194.26q2.29-3.12,11.91-3.13t12,3.13c1,1.38,1.7,4.24,2,8.55h7.56q-.79-9.44-3.78-12.92-4.08-4.74-17.78-4.75t-17.73,4.75q-3,3.48-3.78,12.92h7.56C239.22,198.5,239.9,195.64,240.92,194.26Z" transform="translate(-36.16 -164.73)"/>
    <rect class="cls-2" x="245.34" y="41.55" width="7.24" height="28.99"/>
    <path class="cls-2" d="M300.84,190.72q8.27,0,8.26,7.6c0,.45-.05,1.33-.15,2.63l-.22,1.86h7.13l.12-4q0-14.06-13.65-14.05-9.87,0-14.16,7l-.15-.15.72-5.69h-7.23v16.95h7.37C289.61,194.76,293.58,190.72,300.84,190.72Z" transform="translate(-36.16 -164.73)"/>
    <path class="cls-2" d="M360,189.89q-4.08-4.74-17.77-4.75t-17.73,4.75q-3,3.48-3.79,12.92h7.57c.34-4.31,1-7.17,2-8.55q2.31-3.12,11.92-3.13t12,3.13q2.29,3.13,2.3,16.31t-2.3,16.3q-2.3,3.13-12,3.13t-11.92-3.13q-2.29-3.12-2.3-16.3c0-1.54,0-3,.07-4.29h-7.58c-.05,1.36-.08,2.78-.08,4.29q0,15.92,4.08,20.67T342.2,236q13.69,0,17.77-4.76t4.09-20.67Q364.06,194.66,360,189.89Z" transform="translate(-36.16 -164.73)"/>
  </g>
  <g id="R">
    <path class="cls-3" d="M372.78,182.32a6.13,6.13,0,1,1-4.33,1.8A5.87,5.87,0,0,1,372.78,182.32Zm0,.64a5.12,5.12,0,0,0-3.8,1.6,5.58,5.58,0,0,0,0,7.76,5.27,5.27,0,0,0,7.58,0,5.58,5.58,0,0,0,0-7.76A5.07,5.07,0,0,0,372.78,183ZM370,191.81V185h3.38c1.39,0,2.09.67,2.09,2,0,1-.31,1.57-.94,1.78a1.24,1.24,0,0,1,.84,1.32v1.75h-.89v-1.58c0-.73-.34-1.1-1-1.1h-2.57v2.68Zm.9-3.48h2.21c1,0,1.46-.4,1.46-1.18a1.89,1.89,0,0,0-.22-1.13c-.14-.17-.46-.25-1-.25h-2.49Z" transform="translate(-36.16 -164.73)"/>
  </g>
</svg>
